<mxfile host="65bd71144e">
    <diagram id="jqtPZpFRwkF8Adb8aV8S" name="第 1 页">
        <mxGraphModel dx="1030" dy="855" grid="1" gridSize="10" guides="1" tooltips="1" connect="1" arrows="1" fold="1" page="1" pageScale="1" pageWidth="1169" pageHeight="1654" math="0" shadow="0">
            <root>
                <mxCell id="0"/>
                <mxCell id="1" parent="0"/>
                <mxCell id="53" value="" style="rounded=0;whiteSpace=wrap;html=1;fontSize=14;fillColor=#ffe6cc;strokeColor=#d79b00;fontStyle=0" parent="1" vertex="1">
                    <mxGeometry x="70" y="760" width="1005" height="350" as="geometry"/>
                </mxCell>
                <mxCell id="31" value="" style="rounded=0;whiteSpace=wrap;html=1;fontSize=14;fillColor=#fff2cc;strokeColor=#d6b656;fontStyle=0" parent="1" vertex="1">
                    <mxGeometry x="155" y="160" width="855" height="580" as="geometry"/>
                </mxCell>
                <mxCell id="15" value="" style="rounded=0;whiteSpace=wrap;html=1;dashed=1;fontSize=14;fillColor=#d5e8d4;strokeColor=#82b366;fontStyle=0" parent="1" vertex="1">
                    <mxGeometry x="225" y="190" width="220" height="160" as="geometry"/>
                </mxCell>
                <mxCell id="7" style="edgeStyle=none;html=1;exitX=0.5;exitY=1;exitDx=0;exitDy=0;fontSize=14;fontStyle=0" parent="1" source="2" target="6" edge="1">
                    <mxGeometry relative="1" as="geometry"/>
                </mxCell>
                <mxCell id="2" value="Excel worksheets&lt;br style=&quot;font-size: 14px;&quot;&gt;(.xlsx)" style="rounded=0;whiteSpace=wrap;html=1;fontSize=14;fillColor=#dae8fc;strokeColor=#6c8ebf;fontStyle=0" parent="1" vertex="1">
                    <mxGeometry x="485" y="270" width="120" height="60" as="geometry"/>
                </mxCell>
                <mxCell id="18" style="edgeStyle=none;html=1;exitX=0.5;exitY=1;exitDx=0;exitDy=0;entryX=0.5;entryY=0;entryDx=0;entryDy=0;fontSize=14;fontStyle=0" parent="1" source="3" target="17" edge="1">
                    <mxGeometry relative="1" as="geometry"/>
                </mxCell>
                <mxCell id="3" value="SystemRDL files&lt;br style=&quot;font-size: 14px;&quot;&gt;(.rdl)" style="rounded=0;whiteSpace=wrap;html=1;fontSize=14;fillColor=#dae8fc;strokeColor=#6c8ebf;fontStyle=0" parent="1" vertex="1">
                    <mxGeometry x="645" y="270" width="120" height="60" as="geometry"/>
                </mxCell>
                <mxCell id="20" style="edgeStyle=none;html=1;fontSize=14;entryX=0.5;entryY=0;entryDx=0;entryDy=0;fontStyle=0" parent="1" source="6" target="21" edge="1">
                    <mxGeometry relative="1" as="geometry">
                        <mxPoint x="545" y="580" as="targetPoint"/>
                    </mxGeometry>
                </mxCell>
                <mxCell id="6" value="parse Excel worksheets" style="rounded=1;whiteSpace=wrap;html=1;fontSize=14;fillColor=#e1d5e7;strokeColor=#9673a6;fontStyle=0" parent="1" vertex="1">
                    <mxGeometry x="485" y="410" width="120" height="60" as="geometry"/>
                </mxCell>
                <mxCell id="9" value="&amp;nbsp;1. check basic format&lt;br style=&quot;font-size: 14px&quot;&gt;&amp;nbsp;2. check register name/abbr.&lt;br style=&quot;font-size: 14px&quot;&gt;&amp;nbsp;3. check register address&lt;br style=&quot;font-size: 14px&quot;&gt;&amp;nbsp;4. check field declaration" style="rounded=0;whiteSpace=wrap;html=1;align=left;fontSize=14;spacingLeft=3;fillColor=#d5e8d4;strokeColor=#82b366;fontStyle=0;spacingTop=0;" parent="1" vertex="1">
                    <mxGeometry x="225" y="380" width="220" height="120" as="geometry"/>
                </mxCell>
                <mxCell id="14" style="edgeStyle=none;html=1;exitX=1;exitY=0.5;exitDx=0;exitDy=0;entryX=0;entryY=0.5;entryDx=0;entryDy=0;fontSize=14;dashed=1;fontStyle=0" parent="1" source="10" target="2" edge="1">
                    <mxGeometry relative="1" as="geometry"/>
                </mxCell>
                <mxCell id="10" value="generate Excel templates" style="rounded=1;whiteSpace=wrap;html=1;fontSize=14;fillColor=#e1d5e7;strokeColor=#9673a6;fontStyle=0" parent="1" vertex="1">
                    <mxGeometry x="285" y="270" width="120" height="60" as="geometry"/>
                </mxCell>
                <mxCell id="13" value="&lt;font style=&quot;font-size: 18px&quot;&gt;&lt;span style=&quot;font-size: 18px&quot;&gt;HJ-micro Register Design Automation (HRDA)&amp;nbsp; Tool Flow&lt;/span&gt;&lt;/font&gt;" style="text;html=1;strokeColor=none;fillColor=none;align=center;verticalAlign=middle;whiteSpace=wrap;rounded=0;dashed=1;fontSize=18;fontStyle=1" parent="1" vertex="1">
                    <mxGeometry x="340" y="100" width="550" height="30" as="geometry"/>
                </mxCell>
                <mxCell id="16" value="&lt;font style=&quot;font-size: 14px;&quot;&gt;template generator (optional)&lt;/font&gt;" style="text;html=1;strokeColor=none;fillColor=none;align=center;verticalAlign=middle;whiteSpace=wrap;rounded=0;dashed=1;fontSize=14;fontStyle=0" parent="1" vertex="1">
                    <mxGeometry x="235" y="200" width="190" height="30" as="geometry"/>
                </mxCell>
                <mxCell id="28" style="edgeStyle=none;html=1;exitX=0.5;exitY=1;exitDx=0;exitDy=0;fontSize=14;fontStyle=0" parent="1" source="17" edge="1">
                    <mxGeometry relative="1" as="geometry">
                        <mxPoint x="705" y="660" as="targetPoint"/>
                    </mxGeometry>
                </mxCell>
                <mxCell id="17" value="parse RDL files" style="rounded=1;whiteSpace=wrap;html=1;fontSize=14;fontStyle=0;fillColor=#e1d5e7;strokeColor=#9673a6;" parent="1" vertex="1">
                    <mxGeometry x="645" y="550" width="120" height="60" as="geometry"/>
                </mxCell>
                <mxCell id="27" style="edgeStyle=none;html=1;exitX=1;exitY=0.5;exitDx=0;exitDy=0;entryX=0;entryY=0.5;entryDx=0;entryDy=0;fontSize=14;fontStyle=0" parent="1" source="21" target="17" edge="1">
                    <mxGeometry relative="1" as="geometry"/>
                </mxCell>
                <mxCell id="21" value="generate RDL files" style="rounded=1;whiteSpace=wrap;html=1;fontSize=14;fontStyle=0;fillColor=#e1d5e7;strokeColor=#9673a6;" parent="1" vertex="1">
                    <mxGeometry x="475.63" y="550" width="138.75" height="60" as="geometry"/>
                </mxCell>
                <mxCell id="23" value="" style="endArrow=none;dashed=1;html=1;exitX=1;exitY=0.5;exitDx=0;exitDy=0;entryX=0;entryY=0.5;entryDx=0;entryDy=0;fontSize=14;fontStyle=0" parent="1" source="9" target="6" edge="1">
                    <mxGeometry width="50" height="50" relative="1" as="geometry">
                        <mxPoint x="415" y="590" as="sourcePoint"/>
                        <mxPoint x="465" y="540" as="targetPoint"/>
                    </mxGeometry>
                </mxCell>
                <mxCell id="25" value="" style="endArrow=none;dashed=1;html=1;exitX=1;exitY=0.5;exitDx=0;exitDy=0;entryX=0;entryY=0.5;entryDx=0;entryDy=0;fontSize=14;fontStyle=0" parent="1" source="17" target="26" edge="1">
                    <mxGeometry width="50" height="50" relative="1" as="geometry">
                        <mxPoint x="765" y="460" as="sourcePoint"/>
                        <mxPoint x="815" y="440" as="targetPoint"/>
                    </mxGeometry>
                </mxCell>
                <mxCell id="26" value="systemrdl-compiler&lt;br style=&quot;font-size: 14px;&quot;&gt;(open-source)" style="rounded=0;whiteSpace=wrap;html=1;fontSize=14;fillColor=#d5e8d4;strokeColor=#82b366;fontStyle=0" parent="1" vertex="1">
                    <mxGeometry x="855" y="550" width="135" height="60" as="geometry"/>
                </mxCell>
                <mxCell id="33" style="edgeStyle=none;html=1;exitX=0.5;exitY=1;exitDx=0;exitDy=0;fontSize=14;entryX=0.5;entryY=0;entryDx=0;entryDy=0;fontStyle=0" parent="1" source="29" target="39" edge="1">
                    <mxGeometry relative="1" as="geometry">
                        <mxPoint x="705" y="780" as="targetPoint"/>
                    </mxGeometry>
                </mxCell>
                <mxCell id="29" value="hierarchical register model" style="rounded=0;whiteSpace=wrap;html=1;fontSize=14;fillColor=#dae8fc;strokeColor=#6c8ebf;fontStyle=0" parent="1" vertex="1">
                    <mxGeometry x="645" y="660" width="120" height="60" as="geometry"/>
                </mxCell>
                <mxCell id="32" value="&lt;span style=&quot;font-size: 14px;&quot;&gt;HRDA Parser&lt;/span&gt;" style="text;html=1;strokeColor=none;fillColor=none;align=center;verticalAlign=middle;whiteSpace=wrap;rounded=0;fontSize=14;fontStyle=1" parent="1" vertex="1">
                    <mxGeometry x="165" y="690" width="120" height="30" as="geometry"/>
                </mxCell>
                <mxCell id="34" value="UVM RAL model" style="rounded=0;whiteSpace=wrap;html=1;fontSize=14;fontStyle=0;fillColor=#dae8fc;strokeColor=#6c8ebf;" parent="1" vertex="1">
                    <mxGeometry x="735" y="920" width="120" height="60" as="geometry"/>
                </mxCell>
                <mxCell id="35" value="C Header files" style="rounded=0;whiteSpace=wrap;html=1;fontSize=14;fontStyle=0;fillColor=#dae8fc;strokeColor=#6c8ebf;" parent="1" vertex="1">
                    <mxGeometry x="925" y="920" width="120" height="60" as="geometry"/>
                </mxCell>
                <mxCell id="36" value="RTL modules" style="rounded=0;whiteSpace=wrap;html=1;fontSize=14;fontStyle=0;fillColor=#dae8fc;strokeColor=#6c8ebf;" parent="1" vertex="1">
                    <mxGeometry x="385" y="920" width="120" height="60" as="geometry"/>
                </mxCell>
                <mxCell id="37" value="HTML docs" style="rounded=0;whiteSpace=wrap;html=1;fontSize=14;fontStyle=0;fillColor=#dae8fc;strokeColor=#6c8ebf;" parent="1" vertex="1">
                    <mxGeometry x="555" y="920" width="120" height="60" as="geometry"/>
                </mxCell>
                <mxCell id="42" style="edgeStyle=orthogonalEdgeStyle;html=1;entryX=0.5;entryY=0;entryDx=0;entryDy=0;fontSize=14;rounded=0;fontStyle=0" parent="1" source="39" target="37" edge="1">
                    <mxGeometry relative="1" as="geometry"/>
                </mxCell>
                <mxCell id="43" style="edgeStyle=orthogonalEdgeStyle;rounded=0;html=1;exitX=0.5;exitY=1;exitDx=0;exitDy=0;fontSize=14;fontStyle=0" parent="1" source="39" target="36" edge="1">
                    <mxGeometry relative="1" as="geometry"/>
                </mxCell>
                <mxCell id="44" style="edgeStyle=orthogonalEdgeStyle;rounded=0;html=1;exitX=0.5;exitY=1;exitDx=0;exitDy=0;entryX=0.5;entryY=0;entryDx=0;entryDy=0;fontSize=14;fontStyle=0" parent="1" source="39" target="34" edge="1">
                    <mxGeometry relative="1" as="geometry"/>
                </mxCell>
                <mxCell id="45" style="edgeStyle=orthogonalEdgeStyle;rounded=0;html=1;exitX=0.5;exitY=1;exitDx=0;exitDy=0;entryX=0.5;entryY=0;entryDx=0;entryDy=0;fontSize=14;fontStyle=0" parent="1" source="39" target="35" edge="1">
                    <mxGeometry relative="1" as="geometry"/>
                </mxCell>
                <mxCell id="39" value="traverse register model" style="rounded=1;whiteSpace=wrap;html=1;fontSize=14;fontStyle=0;fillColor=#e1d5e7;strokeColor=#9673a6;" parent="1" vertex="1">
                    <mxGeometry x="645" y="780" width="120" height="60" as="geometry"/>
                </mxCell>
                <mxCell id="46" value="" style="endArrow=none;dashed=1;html=1;rounded=0;fontSize=14;entryX=0.5;entryY=1;entryDx=0;entryDy=0;exitX=0.5;exitY=0;exitDx=0;exitDy=0;fontStyle=0" parent="1" source="47" target="37" edge="1">
                    <mxGeometry width="50" height="50" relative="1" as="geometry">
                        <mxPoint x="615" y="1040" as="sourcePoint"/>
                        <mxPoint x="625" y="1010" as="targetPoint"/>
                    </mxGeometry>
                </mxCell>
                <mxCell id="47" value="peakrdl-html&lt;br style=&quot;font-size: 14px;&quot;&gt;(open-source)" style="rounded=0;whiteSpace=wrap;html=1;fontSize=14;fillColor=#d5e8d4;strokeColor=#82b366;fontStyle=0" parent="1" vertex="1">
                    <mxGeometry x="555" y="1010" width="120" height="60" as="geometry"/>
                </mxCell>
                <mxCell id="48" value="peakrdl-uvm&lt;br style=&quot;font-size: 14px;&quot;&gt;(open-source)" style="rounded=0;whiteSpace=wrap;html=1;fontSize=14;fillColor=#d5e8d4;strokeColor=#82b366;fontStyle=0" parent="1" vertex="1">
                    <mxGeometry x="735" y="1010" width="120" height="60" as="geometry"/>
                </mxCell>
                <mxCell id="50" value="" style="endArrow=none;dashed=1;html=1;rounded=0;fontSize=14;entryX=0.5;entryY=1;entryDx=0;entryDy=0;exitX=0.5;exitY=0;exitDx=0;exitDy=0;fontStyle=0" parent="1" source="48" target="34" edge="1">
                    <mxGeometry width="50" height="50" relative="1" as="geometry">
                        <mxPoint x="915" y="1080" as="sourcePoint"/>
                        <mxPoint x="965" y="1030" as="targetPoint"/>
                    </mxGeometry>
                </mxCell>
                <mxCell id="54" value="&lt;span style=&quot;font-size: 14px;&quot;&gt;HRDA Generator&lt;/span&gt;" style="text;html=1;strokeColor=none;fillColor=none;align=center;verticalAlign=middle;whiteSpace=wrap;rounded=0;fontSize=14;fontStyle=1" parent="1" vertex="1">
                    <mxGeometry x="85" y="1060" width="150" height="30" as="geometry"/>
                </mxCell>
                <mxCell id="55" value="generate register tree and interface:&lt;br style=&quot;font-size: 14px&quot;&gt;&amp;nbsp;&lt;br&gt;1. root node: regmst and APB interface&lt;br&gt;2. leaf node: regslv, 3rd party IP interface, memory interface" style="rounded=0;whiteSpace=wrap;html=1;align=left;fontSize=14;spacingLeft=5;fillColor=#d5e8d4;strokeColor=#82b366;fontStyle=0" parent="1" vertex="1">
                    <mxGeometry x="95" y="890" width="260" height="120" as="geometry"/>
                </mxCell>
                <mxCell id="56" value="" style="endArrow=none;dashed=1;html=1;rounded=0;fontSize=14;exitX=1;exitY=0.5;exitDx=0;exitDy=0;entryX=0;entryY=0.5;entryDx=0;entryDy=0;fontStyle=0" parent="1" source="55" target="36" edge="1">
                    <mxGeometry width="50" height="50" relative="1" as="geometry">
                        <mxPoint x="340" y="980" as="sourcePoint"/>
                        <mxPoint x="390" y="930" as="targetPoint"/>
                    </mxGeometry>
                </mxCell>
            </root>
        </mxGraphModel>
    </diagram>
</mxfile>